PathFileType	4	(X/Y/Z)	Patient4_TMGait_0pt7_01_right_27.trc.trc
DataRate	CameraRate	NumFrames	NumMarkers	Units	OrigDataRate	OrigDataStartFrame	OrigNumFrames
86.956521739131	86.956521739131	5	33	mm	86.956521739131	89	       141
Frame#	Time	Sacral			L.Shoulder			Chest			R.Shoulder			Neck			R.ASIS			L.ASIS			R.Thigh.Superior			R.Thigh.Lateral			R.Thigh.Inferior			R.Patella			L.Thigh.Superior			L.Thigh.Lateral			L.Thigh.Inferior			L.Patella			L.Shank.Superior			L.Shank.Lateral			L.Shank.Inferior			R.Shank.Superior			R.Shank.Lateral			R.Shank.Inferior			R.Heel			R.Midfoot.Superior			R.Midfoot.Lateral			R.Toe			L.Heel			L.Midfoot.Lateral			L.Midfoot.Superior			L.Toe			L.Elbow			L.Wrist			R.Elbow			R.Wrist			
		X1	Y1	Z1	X2	Y2	Z2	X3	Y3	Z3	X4	Y4	Z4	X5	Y5	Z5	X6	Y6	Z6	X7	Y7	Z7	X8	Y8	Z8	X9	Y9	Z9	X10	Y10	Z10	X11	Y11	Z11	X12	Y12	Z12	X13	Y13	Z13	X14	Y14	Z14	X15	Y15	Z15	X16	Y16	Z16	X17	Y17	Z17	X18	Y18	Z18	X19	Y19	Z19	X20	Y20	Z20	X21	Y21	Z21	X22	Y22	Z22	X23	Y23	Z23	X24	Y24	Z24	X25	Y25	Z25	X26	Y26	Z26	X27	Y27	Z27	X28	Y28	Z28	X29	Y29	Z29	X30	Y30	Z30	X31	Y31	Z31	X32	Y32	Z32	X33	Y33	Z33	

89	31.562000000000	754.328534330835	1000.725456853569	474.292223522064	924.703840176335	1421.746011001865	272.496558630036	1039.385511260701	1353.156038725500	426.357822670326	973.206528779473	1437.802807658448	602.771605107018	943.124837482910	1486.877410314711	424.362905700880	984.593633138507	931.295490143073	575.659585253671	958.974901645973	956.485173128607	302.474360803258	1045.397429479177	741.774945368745	546.399789697857	985.130869191669	625.398335781221	619.185287696014	1069.409754366957	575.117093318129	541.488772821039	1070.936267482509	461.841727632376	562.025623194521	1029.235762278642	762.309229544376	326.378647871974	952.509894009038	638.683516058356	271.159758598393	1046.570876633092	569.899361403946	331.959825696627	1055.159455565085	500.757006198362	341.333466499336	1034.762634521494	426.550964010487	332.344864999220	955.934239331238	304.910811181888	280.258127142083	1017.902341809397	198.600622127317	351.557155491170	989.754659742033	395.168064980852	570.871847362942	867.138973154713	364.576422240505	634.087436489435	844.574170865966	256.530564423213	586.512183142614	638.587125567684	205.391418786742	560.712998136616	805.321401811016	144.238021817898	609.294072853431	695.725816659187	153.045291953181	640.933102649522	863.568857402388	36.347917906334	647.610227518861	901.846664518814	38.019627907564	392.143192303452	977.425127676993	35.240509181836	312.338365504963	1058.493674378611	97.785736822399	340.766075695210	1188.665856349445	47.740328677992	316.209521981610	820.249957465515	1077.998762512939	190.352059236242	838.838004259516	816.814988909373	196.628717797703	1047.499138853401	1101.290237217736	714.719159393141	1245.681381304232	1128.123052413769	562.689116466052	
90	31.573500000000	752.775704854845	1001.818764099407	471.912307964291	924.556942182262	1423.322904674786	270.896191088917	1038.184929214520	1354.521450801765	425.477916072749	970.573494050300	1438.705441881839	601.672083917604	941.802198593537	1488.163231280093	423.028715912652	982.805089192838	932.787613526252	574.096920212886	957.957903120279	957.614935550514	300.834582860771	1048.231557109834	746.565907218106	545.320078710083	990.797684300812	628.973085236396	618.138951069127	1077.163943390573	580.817300699706	540.951402314042	1081.067114549900	466.855662170524	561.235715387964	1026.063500683910	761.520844938238	324.400141231925	947.783032009218	638.925974587399	269.825091794609	1040.883739484532	569.137019356042	330.813890217308	1048.564465015924	500.095678245067	340.332819369658	1027.907132074533	426.174602447439	331.421730891704	948.499106807590	304.783300905571	279.733155981791	1010.082751399190	198.433164697226	351.242289428322	999.104788744958	399.887983577470	569.642157743598	875.458343456818	371.268620620478	631.918128324921	851.904553896977	263.316655937723	584.724221627514	645.874712527843	216.655829690304	556.990259030810	810.640904557101	150.656691365651	607.530657229407	700.656739274663	162.632299091788	637.894693242145	865.086226337206	39.093538351428	646.644488683986	893.594320593939	37.960207398535	392.086369139079	969.143868733938	35.148518131560	312.262396986282	1050.230609939727	97.709916735271	340.626580848958	1180.395070135108	47.708873279347	316.082952381134	823.278873691892	1078.855499131903	186.493011724748	851.714556780438	818.315361153969	191.109315636857	1035.623913822934	1100.522510648539	716.222392783798	1238.944000526182	1108.105092256888	567.452191340174	
91	31.585000000000	751.156882586990	1002.859985430221	469.577575819554	924.443222053858	1424.844015906447	269.406510651728	1036.953485150532	1355.822270514815	424.752217061567	967.824209363885	1439.494455767201	600.701757726287	940.454893989282	1489.384563066533	421.831036270971	980.935865224873	934.288091877191	572.658428208753	956.969576987907	958.655250483707	299.299602475124	1050.721926268738	751.409000670401	544.408242339762	996.138991202097	632.812534871897	617.267970721475	1084.321739525955	586.787106068649	540.444066749825	1090.787867214076	472.296673747572	560.527421241062	1022.922434712407	760.766686237036	322.905581760397	943.302659286879	639.191721419931	268.640193505630	1035.295973223248	568.406968600336	329.994350436356	1042.039338607081	499.434971871511	339.635133540317	1021.156055770203	425.799057186960	330.735128993286	941.248092817336	304.675368821465	279.291554357002	1002.346081019713	198.256351378174	351.051888078147	1008.327127352864	404.808316358557	568.574556672345	883.920105756711	377.454628813962	630.011078600691	859.832225382320	269.569274228494	583.088812354390	654.040224613032	225.857198543178	553.671304906571	817.204063437961	156.607577354057	605.789734083360	707.012257909346	170.651273689457	635.083973432275	868.952199935697	42.351282287524	645.451430437756	885.345796006095	37.907774618481	392.039118298506	960.880139961498	35.068963040464	312.204191895176	1042.000973985866	97.617321568345	340.535741894963	1172.146208857878	47.637805058501	315.994856406874	826.302686224633	1079.750053490415	182.636965670035	864.856322122412	820.285177124083	185.568636053428	1023.772823530863	1099.912255686735	717.510900147651	1231.251355056598	1087.698604975038	573.363608309929	
92	31.596500000000	749.469859153955	1003.841609253065	467.268596812256	924.345475588801	1426.289304196405	268.028013146959	1035.690722028187	1357.039528547311	424.166519882722	964.994379975789	1440.167609570885	599.842041611152	939.101874499105	1490.524392023592	420.760043876255	978.983057731078	935.786393120829	571.330437940642	956.029361285284	959.603188116954	297.861953315317	1052.844492467033	756.264526107360	543.553582812552	1001.215900372642	636.874694041625	616.544702506619	1090.890298405637	592.946204990007	539.892582993439	1100.093026011773	478.091039431229	559.904891014379	1019.883061888895	760.068890414460	321.872095944907	939.107192001440	639.462614657020	267.610671762220	1029.883435470670	567.708085780749	329.467387460211	1035.674972901861	498.780122311369	339.230027198079	1014.586289065748	425.419939743958	330.278157240287	934.229191770630	304.593351276327	278.941084055937	994.723035306884	198.067004283598	350.985618918021	1017.439848696247	409.850705653249	567.689621711830	892.540989598403	383.023238798016	628.420355232705	868.396635914009	275.144839437122	581.670223897260	663.041299571633	232.857691333479	550.906645792776	825.083292343216	161.855803204472	604.144300420254	714.807653738411	176.903719702448	632.623848850033	875.268820954667	45.863277780788	644.055350226430	877.111357966878	37.859451283537	392.003030559070	952.644190839190	35.008460915668	312.164326603113	1033.804041281940	97.522189761225	340.495158630772	1163.922908554884	47.561887097077	315.941086392486	829.418473197147	1080.634535576708	178.773868017766	878.240384360367	822.707557548031	180.054743609815	1012.000686248192	1099.423058171311	718.588701948945	1222.502361884980	1067.037058702568	580.476632831126	
93	31.608000000000	747.714528532971	1004.753311471317	464.970027477400	924.249966738233	1427.641195201717	266.758733299147	1034.396268757244	1358.158101069322	423.706876519249	962.112725206166	1440.726299661719	599.073694453853	937.758160733984	1491.567460698807	419.803539081450	976.947786858301	937.272365384270	570.106523495036	955.152576433725	960.455736516375	296.526029785420	1054.590554167093	761.100448200116	542.671756981608	1006.074760357067	641.114771333574	615.947338372690	1096.891657422586	599.213133363955	539.254919137056	1108.975760960531	484.163939202482	559.372773093652	1016.992186901451	759.429669024888	321.256229931032	935.208827800938	639.716857744184	266.733500859434	1024.694881065607	567.031890449093	329.190685494167	1029.531373110708	498.129179604899	339.089954429057	1008.245747088652	425.029037730903	330.030563745998	927.464731329986	304.535602472531	278.680890129690	987.229276228135	197.859842810224	351.034474369082	1026.458567147119	414.938998314499	567.000799641261	901.338613852307	387.885494534445	627.186759760218	877.630543119587	279.929876812291	580.525356992308	672.858973213701	237.605043186671	548.809429434584	834.328008653759	166.204959073878	602.670118132853	724.040945450064	181.274705918264	630.618551665395	884.051316036145	49.340743329179	642.518848887806	868.896454475173	37.812739486845	391.979958736342	944.440868735270	34.969142626165	312.142936292512	1025.637062238754	97.432569136320	340.504053714732	1155.726527748947	47.502310373292	315.916818059060	832.709281846083	1081.474637153134	174.894156301198	891.852093706397	825.564637847369	174.615317009835	1000.355128773499	1099.024484632578	719.481223244623	1212.591390442986	1046.256694992141	588.832494133983	
